<svg width="20" height="20" viewBox="0 0 20 20" fill="none" xmlns="http://www.w3.org/2000/svg">
<g clip-path="url(#clip0_60_1215)">
<path fill-rule="evenodd" clip-rule="evenodd" d="M10.0001 0.416992C7.62614 0.418224 5.33001 1.25904 3.52229 2.78909C1.71457 4.31915 0.513151 6.43867 0.132852 8.76866C-0.247447 11.0986 0.218171 13.4872 1.44646 15.5071C2.67474 17.5271 4.5856 19.0468 6.83734 19.7945C7.33411 19.8867 7.52123 19.5788 7.52123 19.317C7.52123 19.0552 7.51129 18.2962 7.50798 17.4663C4.72606 18.0673 4.13822 16.2924 4.13822 16.2924C3.6845 15.1399 3.02876 14.8369 3.02876 14.8369C2.12133 14.2211 3.09666 14.2326 3.09666 14.2326C4.10179 14.3034 4.63003 15.2584 4.63003 15.2584C5.5209 16.7781 6.96981 16.3385 7.53944 16.0816C7.62886 15.4379 7.88884 14.9999 8.17531 14.7513C5.95309 14.501 3.61826 13.6481 3.61826 9.83818C3.60449 8.85008 3.97325 7.89454 4.64824 7.16923C4.54557 6.91896 4.2028 5.90802 4.74593 4.53485C4.74593 4.53485 5.58548 4.26812 7.4964 5.55403C9.13545 5.10835 10.8648 5.10835 12.5038 5.55403C14.4131 4.26812 15.251 4.53485 15.251 4.53485C15.7958 5.90473 15.453 6.91567 15.3503 7.16923C16.0275 7.89465 16.397 8.85187 16.382 9.84147C16.382 13.6597 14.0422 14.501 11.8166 14.7463C12.1743 15.0559 12.4939 15.6601 12.4939 16.5888C12.4939 17.9191 12.4823 18.9893 12.4823 19.317C12.4823 19.5821 12.6628 19.8916 13.1695 19.7945C15.4215 19.0467 17.3326 17.5267 18.5608 15.5064C19.7891 13.4861 20.2545 11.0972 19.8737 8.76704C19.493 6.43683 18.291 4.31729 16.4827 2.7875C14.6744 1.25771 12.3777 0.417443 10.0034 0.416992H10.0001Z" fill="white"/>
<path d="M3.78632 14.6935C3.76479 14.7429 3.68531 14.7577 3.62073 14.7232C3.55615 14.6886 3.50813 14.6244 3.53131 14.5733C3.5545 14.5223 3.63232 14.5091 3.6969 14.5437C3.76148 14.5783 3.81116 14.6441 3.78632 14.6935Z" fill="white"/>
<path d="M4.19188 15.1433C4.15758 15.1604 4.11835 15.1652 4.08089 15.1568C4.04344 15.1484 4.01009 15.1273 3.98655 15.0972C3.92197 15.028 3.90871 14.9325 3.95839 14.8897C4.00807 14.8469 4.09749 14.8667 4.16207 14.9358C4.22665 15.005 4.24155 15.1005 4.19188 15.1433Z" fill="white"/>
<path d="M4.58697 15.7143C4.5257 15.7571 4.42138 15.7143 4.36342 15.6287C4.34739 15.6133 4.33465 15.5949 4.32594 15.5746C4.31724 15.5542 4.31274 15.5323 4.31274 15.5102C4.31274 15.488 4.31724 15.4661 4.32594 15.4457C4.33465 15.4254 4.34739 15.407 4.36342 15.3916C4.42469 15.3504 4.52902 15.3916 4.58697 15.4756C4.64493 15.5595 4.64659 15.6715 4.58697 15.7143V15.7143Z" fill="white"/>
<path d="M5.12095 16.2674C5.0663 16.3283 4.95536 16.3118 4.86429 16.2295C4.77321 16.1472 4.75168 16.0352 4.80632 15.9759C4.86097 15.9167 4.97192 15.9331 5.0663 16.0138C5.16069 16.0945 5.17891 16.2081 5.12095 16.2674V16.2674Z" fill="white"/>
<path d="M5.871 16.5903C5.84616 16.6677 5.73356 16.7023 5.62096 16.6694C5.50835 16.6364 5.43384 16.5442 5.45536 16.4652C5.47689 16.3862 5.59115 16.3499 5.70541 16.3862C5.81966 16.4224 5.89252 16.5096 5.871 16.5903Z" fill="white"/>
<path d="M6.68986 16.6459C6.68986 16.7266 6.59713 16.7957 6.47791 16.7974C6.35868 16.799 6.26099 16.7332 6.26099 16.6525C6.26099 16.5718 6.35371 16.5027 6.47294 16.501C6.59216 16.4994 6.68986 16.5636 6.68986 16.6459Z" fill="white"/>
<path d="M7.45117 16.5194C7.46608 16.6001 7.38328 16.6841 7.26405 16.7038C7.14483 16.7236 7.04051 16.6758 7.0256 16.5968C7.0107 16.5178 7.09681 16.4322 7.21272 16.4108C7.32864 16.3894 7.43627 16.4387 7.45117 16.5194Z" fill="white"/>
</g>
<defs>
<clipPath id="clip0_60_1215">
<rect width="20" height="20" fill="white"/>
</clipPath>
</defs>
</svg>
