<svg width="21" height="20" viewBox="0 0 21 20" fill="none" xmlns="http://www.w3.org/2000/svg">
<g clip-path="url(#clip0_60_1214)">
<path fill-rule="evenodd" clip-rule="evenodd" d="M14.7863 5.45673C13.7538 4.47198 12.3759 3.93552 10.9502 3.95756C8.34134 3.95756 6.12566 5.71761 5.33564 8.08761C4.91676 9.32956 4.91676 10.6745 5.33564 11.9164H5.33931C6.13299 14.2828 8.345 16.0428 10.9539 16.0428C12.3005 16.0428 13.4567 15.6984 14.3527 15.09V15.0875C15.4073 14.3893 16.1275 13.2907 16.3516 12.0487H10.9502V8.19791H20.3825C20.5001 8.86666 20.5552 9.5501 20.5552 10.2299C20.5552 13.2714 19.4682 15.8429 17.5769 17.5846L17.5789 17.5861C15.9217 19.1147 13.6472 20.0002 10.9502 20.0002C7.16918 20.0002 3.71153 17.869 2.01394 14.4922C0.595611 11.6666 0.595615 8.33752 2.01395 5.51188C3.71154 2.13139 7.16918 0.000185607 10.9502 0.000185607C13.4341 -0.0292099 15.8335 0.904099 17.6413 2.60169L14.7863 5.45673Z" fill="white"/>
</g>
<defs>
<clipPath id="clip0_60_1214">
<rect width="20" height="20" fill="white" transform="translate(0.75)"/>
</clipPath>
</defs>
</svg>
