<svg width="21" height="19" viewBox="0 0 21 19" fill="none" xmlns="http://www.w3.org/2000/svg">
<path fill-rule="evenodd" clip-rule="evenodd" d="M13.3566 1.50492C11.8813 0.0296105 9.48933 0.0296075 8.01402 1.50492L2.67143 6.84751C1.19611 8.32282 1.19611 10.7148 2.67143 12.1901L8.01401 17.5327C9.48933 19.008 11.8813 19.008 13.3566 17.5327L18.6992 12.1901C20.1745 10.7148 20.1745 8.32282 18.6992 6.84751L13.3566 1.50492ZM8.54865 11.9231C9.7289 13.1033 11.6425 13.1033 12.8227 11.9231C14.003 10.7428 14.003 8.82928 12.8227 7.64903C11.6425 6.46878 9.7289 6.46878 8.54865 7.64903C7.3684 8.82928 7.3684 10.7428 8.54865 11.9231Z" fill="white"/>
</svg>
