<svg width="21" height="20" viewBox="0 0 21 20" fill="none" xmlns="http://www.w3.org/2000/svg">
<g clip-path="url(#clip0_60_1212)">
<path d="M10.2485 1.80078C12.9204 1.80078 13.2368 1.8125 14.2876 1.85937C15.2642 1.90234 15.7915 2.06641 16.1431 2.20313C16.6079 2.38281 16.9438 2.60156 17.2915 2.94922C17.6431 3.30078 17.8579 3.63281 18.0376 4.09766C18.1743 4.44922 18.3384 4.98047 18.3813 5.95313C18.4282 7.00781 18.4399 7.32422 18.4399 9.99219C18.4399 12.6641 18.4282 12.9805 18.3813 14.0313C18.3384 15.0078 18.1743 15.5352 18.0376 15.8867C17.8579 16.3516 17.6392 16.6875 17.2915 17.0352C16.9399 17.3867 16.6079 17.6016 16.1431 17.7813C15.7915 17.918 15.2603 18.082 14.2876 18.125C13.2329 18.1719 12.9165 18.1836 10.2485 18.1836C7.57666 18.1836 7.26025 18.1719 6.20947 18.125C5.23291 18.082 4.70557 17.918 4.354 17.7813C3.88916 17.6016 3.55322 17.3828 3.20557 17.0352C2.854 16.6836 2.63916 16.3516 2.45947 15.8867C2.32275 15.5352 2.15869 15.0039 2.11572 14.0313C2.06885 12.9766 2.05713 12.6602 2.05713 9.99219C2.05713 7.32031 2.06885 7.00391 2.11572 5.95313C2.15869 4.97656 2.32275 4.44922 2.45947 4.09766C2.63916 3.63281 2.85791 3.29688 3.20557 2.94922C3.55713 2.59766 3.88916 2.38281 4.354 2.20313C4.70557 2.06641 5.23682 1.90234 6.20947 1.85937C7.26025 1.8125 7.57666 1.80078 10.2485 1.80078ZM10.2485 0C7.53369 0 7.19385 0.0117187 6.12744 0.0585938C5.06494 0.105469 4.33447 0.277344 3.70166 0.523437C3.0415 0.78125 2.48291 1.12109 1.92822 1.67969C1.36963 2.23438 1.02979 2.79297 0.771973 3.44922C0.525879 4.08594 0.354004 4.8125 0.307129 5.875C0.260254 6.94531 0.248535 7.28516 0.248535 10C0.248535 12.7148 0.260254 13.0547 0.307129 14.1211C0.354004 15.1836 0.525879 15.9141 0.771973 16.5469C1.02979 17.207 1.36963 17.7656 1.92822 18.3203C2.48291 18.875 3.0415 19.2188 3.69775 19.4727C4.33447 19.7188 5.06104 19.8906 6.12354 19.9375C7.18994 19.9844 7.52979 19.9961 10.2446 19.9961C12.9595 19.9961 13.2993 19.9844 14.3657 19.9375C15.4282 19.8906 16.1587 19.7188 16.7915 19.4727C17.4478 19.2188 18.0063 18.875 18.561 18.3203C19.1157 17.7656 19.4595 17.207 19.7134 16.5508C19.9595 15.9141 20.1313 15.1875 20.1782 14.125C20.2251 13.0586 20.2368 12.7188 20.2368 10.0039C20.2368 7.28906 20.2251 6.94922 20.1782 5.88281C20.1313 4.82031 19.9595 4.08984 19.7134 3.45703C19.4673 2.79297 19.1274 2.23438 18.5689 1.67969C18.0142 1.125 17.4556 0.78125 16.7993 0.527344C16.1626 0.28125 15.436 0.109375 14.3735 0.0625C13.3032 0.0117188 12.9634 0 10.2485 0Z" fill="white"/>
<path d="M10.2485 4.86328C7.4126 4.86328 5.11182 7.16406 5.11182 10C5.11182 12.8359 7.4126 15.1367 10.2485 15.1367C13.0845 15.1367 15.3853 12.8359 15.3853 10C15.3853 7.16406 13.0845 4.86328 10.2485 4.86328ZM10.2485 13.332C8.40869 13.332 6.9165 11.8398 6.9165 10C6.9165 8.16016 8.40869 6.66797 10.2485 6.66797C12.0884 6.66797 13.5806 8.16016 13.5806 10C13.5806 11.8398 12.0884 13.332 10.2485 13.332Z" fill="white"/>
<path d="M16.7876 4.66016C16.7876 5.32422 16.2485 5.85938 15.5884 5.85938C14.9243 5.85938 14.3892 5.32031 14.3892 4.66016C14.3892 3.99609 14.9282 3.46094 15.5884 3.46094C16.2485 3.46094 16.7876 4 16.7876 4.66016Z" fill="white"/>
</g>
<defs>
<clipPath id="clip0_60_1212">
<rect width="20" height="20" fill="white" transform="translate(0.25)"/>
</clipPath>
</defs>
</svg>
