<svg width="21" height="20" viewBox="0 0 21 20" fill="none" xmlns="http://www.w3.org/2000/svg">
<g clip-path="url(#clip0_60_1213)">
<path d="M19.021 0H1.97803C1.16162 0 0.501465 0.644531 0.501465 1.44141V18.5547C0.501465 19.3516 1.16162 20 1.97803 20H19.021C19.8374 20 20.5015 19.3516 20.5015 18.5586V1.44141C20.5015 0.644531 19.8374 0 19.021 0ZM6.43506 17.043H3.46631V7.49609H6.43506V17.043ZM4.95068 6.19531C3.99756 6.19531 3.22803 5.42578 3.22803 4.47656C3.22803 3.52734 3.99756 2.75781 4.95068 2.75781C5.8999 2.75781 6.66943 3.52734 6.66943 4.47656C6.66943 5.42187 5.8999 6.19531 4.95068 6.19531ZM17.5444 17.043H14.5796V12.4023C14.5796 11.2969 14.5601 9.87109 13.0366 9.87109C11.4937 9.87109 11.2593 11.0781 11.2593 12.3242V17.043H8.29834V7.49609H11.1421V8.80078H11.1812C11.5757 8.05078 12.5444 7.25781 13.9858 7.25781C16.9897 7.25781 17.5444 9.23438 17.5444 11.8047V17.043V17.043Z" fill="white"/>
</g>
<defs>
<clipPath id="clip0_60_1213">
<rect width="20" height="20" fill="white" transform="translate(0.5)"/>
</clipPath>
</defs>
</svg>
