<svg width="20" height="20" viewBox="0 0 20 20" fill="none" xmlns="http://www.w3.org/2000/svg">
<g clip-path="url(#clip0_645_521)">
<path fill-rule="evenodd" clip-rule="evenodd" d="M10.0004 0.417969C7.62639 0.4192 5.33025 1.26002 3.52253 2.79007C1.71482 4.32013 0.513395 6.43964 0.133096 8.76963C-0.247203 11.0996 0.218415 13.4881 1.4467 15.5081C2.67499 17.5281 4.58584 19.0478 6.83758 19.7954C7.33435 19.8876 7.52147 19.5798 7.52147 19.318C7.52147 19.0562 7.51153 18.2971 7.50822 17.4673C4.72631 18.0683 4.13846 16.2934 4.13846 16.2934C3.68475 15.1408 3.02901 14.8379 3.02901 14.8379C2.12157 14.2221 3.0969 14.2336 3.0969 14.2336C4.10204 14.3044 4.63027 15.2594 4.63027 15.2594C5.52115 16.7791 6.97005 16.3395 7.53969 16.0826C7.6291 15.4389 7.88909 15.0009 8.17556 14.7523C5.95333 14.502 3.61851 13.6491 3.61851 9.83915C3.60473 8.85106 3.97349 7.89551 4.64848 7.1702C4.54582 6.91994 4.20304 5.909 4.74618 4.53583C4.74618 4.53583 5.58573 4.2691 7.49664 5.555C9.1357 5.10932 10.865 5.10932 12.5041 5.555C14.4133 4.2691 15.2512 4.53583 15.2512 4.53583C15.796 5.9057 15.4533 6.91665 15.3506 7.1702C16.0277 7.89563 16.3972 8.85284 16.3822 9.84245C16.3822 13.6606 14.0424 14.502 11.8169 14.7473C12.1746 15.0569 12.4942 15.6611 12.4942 16.5897C12.4942 17.9201 12.4826 18.9903 12.4826 19.318C12.4826 19.5831 12.663 19.8926 13.1698 19.7954C15.4218 19.0477 17.3328 17.5277 18.5611 15.5074C19.7893 13.4871 20.2547 11.0982 19.874 8.76801C19.4932 6.43781 18.2912 4.31826 16.4829 2.78847C14.6746 1.25868 12.3779 0.41842 10.0037 0.417969H10.0004Z" fill="black"/>
<path d="M3.78436 14.6925C3.76284 14.7419 3.68335 14.7568 3.61877 14.7222C3.55419 14.6876 3.50618 14.6234 3.52936 14.5724C3.55254 14.5213 3.63037 14.5081 3.69495 14.5427C3.75953 14.5773 3.8092 14.6431 3.78436 14.6925Z" fill="black"/>
<path d="M4.18944 15.1433C4.15514 15.1604 4.11591 15.1652 4.07845 15.1568C4.041 15.1484 4.00765 15.1273 3.98411 15.0972C3.91952 15.028 3.90627 14.9325 3.95595 14.8897C4.00562 14.8469 4.09505 14.8667 4.15963 14.9358C4.22421 15.005 4.23911 15.1005 4.18944 15.1433Z" fill="black"/>
<path d="M4.58673 15.7138C4.52546 15.7566 4.42113 15.7138 4.36318 15.6282C4.34715 15.6129 4.33441 15.5944 4.3257 15.5741C4.31699 15.5537 4.3125 15.5318 4.3125 15.5097C4.3125 15.4875 4.31699 15.4656 4.3257 15.4453C4.33441 15.4249 4.34715 15.4065 4.36318 15.3911C4.42444 15.35 4.52877 15.3911 4.58673 15.4751C4.64469 15.5591 4.64634 15.671 4.58673 15.7138V15.7138Z" fill="black"/>
<path d="M5.11778 16.2664C5.06313 16.3273 4.95219 16.3108 4.86111 16.2285C4.77004 16.1462 4.74851 16.0342 4.80315 15.975C4.85779 15.9157 4.96874 15.9322 5.06313 16.0128C5.15751 16.0935 5.17573 16.2071 5.11778 16.2664V16.2664Z" fill="black"/>
<path d="M5.86856 16.5893C5.84372 16.6667 5.73111 16.7013 5.61851 16.6684C5.50591 16.6354 5.4314 16.5432 5.45292 16.4642C5.47445 16.3852 5.58871 16.349 5.70297 16.3852C5.81722 16.4214 5.89008 16.5087 5.86856 16.5893Z" fill="black"/>
<path d="M6.68669 16.6469C6.68669 16.7276 6.59396 16.7967 6.47474 16.7984C6.35551 16.8 6.25781 16.7341 6.25781 16.6535C6.25781 16.5728 6.35054 16.5036 6.46976 16.502C6.58899 16.5003 6.68669 16.5646 6.68669 16.6469Z" fill="black"/>
<path d="M7.45068 16.5199C7.46559 16.6006 7.38279 16.6846 7.26357 16.7043C7.14434 16.7241 7.04002 16.6763 7.02512 16.5973C7.01021 16.5183 7.09632 16.4327 7.21223 16.4112C7.32815 16.3898 7.43578 16.4392 7.45068 16.5199Z" fill="black"/>
</g>
<defs>
<clipPath id="clip0_645_521">
<rect width="20" height="20" fill="white"/>
</clipPath>
</defs>
</svg>
