<svg width="34" height="34" viewBox="0 0 34 34" fill="none" xmlns="http://www.w3.org/2000/svg">
<path d="M10.8397 7.81997C11.5918 7.806 12.3428 7.88311 13.0763 8.04959C13.6939 8.18443 14.2803 8.43535 14.8043 8.789C15.2882 9.14067 15.6711 9.61345 15.9145 10.1599C16.1943 10.8318 16.3293 11.5552 16.3106 12.2828C16.3424 13.0817 16.1384 13.8723 15.7239 14.5561C15.2879 15.2019 14.6853 15.7177 13.9799 16.0487C14.9372 16.3068 15.7709 16.8979 16.3313 17.7158C16.8692 18.5824 17.1396 19.5885 17.1086 20.608C17.1263 21.4209 16.9583 22.2271 16.6172 22.9651C16.3019 23.609 15.8403 24.1701 15.2693 24.6035C14.6814 25.0322 14.0198 25.3494 13.3174 25.5393C12.589 25.7408 11.8366 25.842 11.0808 25.8401H2.7832V7.81997H10.8397ZM10.361 15.1084C10.9519 15.1327 11.5335 14.9558 12.0108 14.6066C12.2394 14.4031 12.4172 14.149 12.5301 13.8645C12.6429 13.58 12.6876 13.2731 12.6607 12.9682C12.676 12.6122 12.6051 12.2577 12.454 11.9349C12.3259 11.6779 12.1266 11.4631 11.8799 11.3161C11.6301 11.1542 11.3494 11.0459 11.0556 10.998C10.7368 10.9363 10.4124 10.9082 10.0877 10.9142H6.54223V15.1245H10.361V15.1084ZM10.5676 22.7803C10.925 22.7851 11.2816 22.7466 11.6297 22.6655C11.9477 22.5952 12.2494 22.4647 12.5183 22.2808C12.7818 22.0971 12.9946 21.8499 13.1372 21.5621C13.3024 21.1951 13.3784 20.7942 13.3588 20.3921C13.3946 20.0258 13.3461 19.6561 13.2169 19.3114C13.0877 18.9667 12.8814 18.6561 12.6136 18.4036C12.0461 17.9855 11.3506 17.7785 10.6468 17.818H6.54223V22.7803H10.5676Z" fill="#121111"/>
<path d="M22.4622 22.7143C22.7572 22.9877 23.1048 23.1984 23.4837 23.3334C23.8627 23.4684 24.2651 23.5249 24.6666 23.4996C25.3031 23.5157 25.9272 23.322 26.4428 22.9485C26.8622 22.6758 27.1799 22.2721 27.3464 21.8003H30.3442C30.0248 23.1435 29.2447 24.3322 28.1397 25.1598C27.0797 25.8634 25.8269 26.2197 24.5552 26.1794C23.6476 26.1913 22.7468 26.0206 21.9065 25.6776C21.1462 25.3606 20.4644 24.8814 19.9087 24.2734C19.355 23.6364 18.9297 22.8984 18.6561 22.1C18.3489 21.2076 18.1986 20.2687 18.2117 19.3249C18.2061 18.397 18.3615 17.4752 18.671 16.6004C19.0867 15.3697 19.8817 14.3024 20.9417 13.5515C22.0018 12.8007 23.2724 12.405 24.5713 12.4212C25.5303 12.4011 26.4786 12.6255 27.3268 13.0733C28.0936 13.4938 28.7551 14.0826 29.2615 14.7955C29.7795 15.5436 30.1508 16.3832 30.3557 17.2698C30.5803 18.2218 30.6604 19.2022 30.5933 20.178H21.6642C21.5918 21.0949 21.8779 22.004 22.4622 22.7143V22.7143ZM26.3796 15.861C26.1298 15.6111 25.8292 15.4176 25.4983 15.2936C25.1673 15.1696 24.8137 15.118 24.4611 15.1423C23.9933 15.1244 23.5289 15.2281 23.1132 15.4431C22.7835 15.6245 22.4926 15.8687 22.2566 16.1618C22.0476 16.4366 21.8918 16.7482 21.7974 17.0803C21.7123 17.3573 21.6592 17.6432 21.6389 17.9322H27.1696C27.1214 17.1787 26.8469 16.4572 26.3819 15.8621L26.3796 15.861Z" fill="#121111"/>
<path d="M27.856 9.02344H20.9258V10.795H27.856V9.02344Z" fill="#121111"/>
</svg>
