<svg width="35" height="34" viewBox="0 0 35 34" fill="none" xmlns="http://www.w3.org/2000/svg">
<path fill-rule="evenodd" clip-rule="evenodd" d="M17.5007 3.42773C9.81169 3.42773 3.58398 9.65544 3.58398 17.3444C3.58398 23.5025 7.56763 28.7039 13.0995 30.5478C13.7953 30.6696 14.0563 30.2521 14.0563 29.8868C14.0563 29.5563 14.0389 28.4603 14.0389 27.2948C10.5423 27.9385 9.63773 26.4424 9.3594 25.6596C9.20284 25.2595 8.5244 24.0244 7.93294 23.6939C7.44586 23.4329 6.75003 22.7893 7.91555 22.7719C9.01148 22.7545 9.7943 23.7809 10.0552 24.1984C11.3077 26.3033 13.3083 25.7118 14.1085 25.3465C14.2302 24.4419 14.5955 23.833 14.9957 23.4851C11.8992 23.1372 8.66357 21.9369 8.66357 16.6138C8.66357 15.1003 9.20284 13.8478 10.09 12.8737C9.95086 12.5258 9.46378 11.0993 10.2292 9.18575C10.2292 9.18575 11.3947 8.82044 14.0563 10.6122C15.1696 10.2991 16.3525 10.1425 17.5354 10.1425C18.7184 10.1425 19.9013 10.2991 21.0146 10.6122C23.6762 8.80305 24.8417 9.18575 24.8417 9.18575C25.6071 11.0993 25.12 12.5258 24.9809 12.8737C25.868 13.8478 26.4073 15.0829 26.4073 16.6138C26.4073 21.9543 23.1543 23.1372 20.0578 23.4851C20.5623 23.92 20.9972 24.755 20.9972 26.0597C20.9972 27.9211 20.9798 29.4171 20.9798 29.8868C20.9798 30.2521 21.2408 30.687 21.9366 30.5478C24.6993 29.6152 27.1 27.8396 28.8007 25.4711C30.5014 23.1025 31.4166 20.2603 31.4173 17.3444C31.4173 9.65544 25.1896 3.42773 17.5007 3.42773Z" fill="#121111"/>
</svg>
