<svg width="34" height="34" viewBox="0 0 34 34" fill="none" xmlns="http://www.w3.org/2000/svg">
<path fill-rule="evenodd" clip-rule="evenodd" d="M16.9 4.47656C13.4982 4.47656 13.0724 4.49076 11.7364 4.55171C10.4029 4.61267 9.49188 4.82476 8.69529 5.13454C7.86029 5.4485 7.10294 5.94115 6.47669 6.57909C5.83977 7.20462 5.34682 7.96143 5.03214 8.79685C4.72403 9.59344 4.5111 10.5053 4.45015 11.8388C4.39003 13.1739 4.375 13.5989 4.375 17.0016C4.375 20.4042 4.3892 20.8292 4.45015 22.1652C4.5111 23.4987 4.72319 24.4097 5.03298 25.2063C5.34694 26.0413 5.83959 26.7986 6.47753 27.4249C7.10307 28.0618 7.85988 28.5547 8.69529 28.8694C9.49188 29.1784 10.4029 29.3905 11.7364 29.4514C13.0724 29.5124 13.4982 29.5266 16.9 29.5266C20.3018 29.5266 20.7276 29.5124 22.0636 29.4514C23.3971 29.3905 24.3081 29.1784 25.1047 28.8686C25.9397 28.5546 26.6971 28.062 27.3233 27.424C27.9602 26.7985 28.4532 26.0417 28.7679 25.2063C29.0768 24.4097 29.2889 23.4987 29.3498 22.1652C29.4108 20.8292 29.425 20.4034 29.425 17.0016C29.425 13.5998 29.4108 13.1739 29.3498 11.8379C29.2889 10.5044 29.0768 9.59344 28.767 8.79685C28.4526 7.96107 27.9596 7.20394 27.3225 6.57826C26.6969 5.94134 25.9401 5.44838 25.1047 5.13371C24.3081 4.82559 23.3963 4.61267 22.0628 4.55171C20.7276 4.49159 20.3026 4.47656 16.9 4.47656ZM16.9 6.73357C20.2442 6.73357 20.6408 6.74609 21.9618 6.80621C23.1825 6.86216 23.8455 7.06506 24.2872 7.23791C24.8717 7.46419 25.2892 7.7364 25.7276 8.17394C26.166 8.61232 26.4374 9.02982 26.6637 9.61432C26.8357 10.056 27.0394 10.719 27.0953 11.9398C27.1555 13.2608 27.168 13.6574 27.168 17.0016C27.168 20.3457 27.1555 20.7424 27.0953 22.0633C27.0394 23.2841 26.8365 23.9471 26.6637 24.3888C26.4632 24.9328 26.1433 25.425 25.7276 25.8292C25.3235 26.245 24.8313 26.5649 24.2872 26.7652C23.8455 26.9372 23.1825 27.141 21.9618 27.1969C20.6408 27.257 20.245 27.2696 16.9 27.2696C13.555 27.2696 13.1592 27.257 11.8382 27.1969C10.6175 27.141 9.95447 26.9381 9.51275 26.7652C8.96871 26.5648 8.47653 26.2449 8.07238 25.8292C7.6567 25.425 7.33685 24.9328 7.13634 24.3888C6.96433 23.9471 6.76059 23.2841 6.70465 22.0633C6.64453 20.7424 6.632 20.3457 6.632 17.0016C6.632 13.6574 6.64453 13.2608 6.70465 11.9398C6.76059 10.719 6.9635 10.056 7.13634 9.61432C7.36263 9.02982 7.63484 8.61232 8.07238 8.17394C8.47647 7.75815 8.96868 7.43829 9.51275 7.23791C9.95447 7.0659 10.6175 6.86216 11.8382 6.80621C13.1592 6.74609 13.5558 6.73357 16.9 6.73357V6.73357Z" fill="#121111"/>
<path fill-rule="evenodd" clip-rule="evenodd" d="M16.8988 21.1795C16.35 21.1795 15.8065 21.0714 15.2995 20.8614C14.7924 20.6514 14.3317 20.3436 13.9437 19.9555C13.5556 19.5674 13.2478 19.1067 13.0377 18.5997C12.8277 18.0926 12.7196 17.5492 12.7196 17.0004C12.7196 16.4515 12.8277 15.9081 13.0377 15.4011C13.2478 14.894 13.5556 14.4333 13.9437 14.0452C14.3317 13.6572 14.7924 13.3493 15.2995 13.1393C15.8065 12.9293 16.35 12.8212 16.8988 12.8212C18.0072 12.8212 19.0702 13.2615 19.8539 14.0452C20.6377 14.829 21.078 15.892 21.078 17.0004C21.078 18.1088 20.6377 19.1717 19.8539 19.9555C19.0702 20.7392 18.0072 21.1795 16.8988 21.1795V21.1795ZM16.8988 10.5625C15.1914 10.5625 13.5539 11.2408 12.3465 12.4481C11.1392 13.6554 10.4609 15.2929 10.4609 17.0004C10.4609 18.7078 11.1392 20.3453 12.3465 21.5526C13.5539 22.7599 15.1914 23.4382 16.8988 23.4382C18.6062 23.4382 20.2437 22.7599 21.451 21.5526C22.6584 20.3453 23.3366 18.7078 23.3366 17.0004C23.3366 15.2929 22.6584 13.6554 21.451 12.4481C20.2437 11.2408 18.6062 10.5625 16.8988 10.5625V10.5625ZM25.2095 10.4456C25.2095 10.8492 25.0492 11.2363 24.7638 11.5217C24.4784 11.8071 24.0914 11.9674 23.6878 11.9674C23.2841 11.9674 22.8971 11.8071 22.6117 11.5217C22.3263 11.2363 22.166 10.8492 22.166 10.4456C22.166 10.042 22.3263 9.65494 22.6117 9.36955C22.8971 9.08416 23.2841 8.92383 23.6878 8.92383C24.0914 8.92383 24.4784 9.08416 24.7638 9.36955C25.0492 9.65494 25.2095 10.042 25.2095 10.4456" fill="#121111"/>
</svg>
