<svg width="34" height="34" viewBox="0 0 34 34" fill="none" xmlns="http://www.w3.org/2000/svg">
<path d="M29.6262 6.31847V27.6846C29.6262 28.1732 29.4321 28.6417 29.0867 28.9871C28.7413 29.3325 28.2728 29.5266 27.7843 29.5266H6.41808C5.92958 29.5266 5.46108 29.3325 5.11566 28.9871C4.77023 28.6417 4.57617 28.1732 4.57617 27.6846V6.31847C4.57617 5.82997 4.77023 5.36147 5.11566 5.01605C5.46108 4.67062 5.92958 4.47656 6.41808 4.47656H27.7843C28.2728 4.47656 28.7413 4.67062 29.0867 5.01605C29.4321 5.36147 29.6262 5.82997 29.6262 6.31847V6.31847ZM11.9438 14.0545H8.26V25.8427H11.9438V14.0545ZM12.2754 10.0023C12.2773 9.72365 12.2243 9.44734 12.1195 9.18916C12.0147 8.93098 11.86 8.69597 11.6643 8.49757C11.4686 8.29916 11.2358 8.14124 10.9791 8.03282C10.7224 7.9244 10.4469 7.86761 10.1682 7.86568H10.1019C9.53524 7.86568 8.99178 8.09079 8.59109 8.49148C8.1904 8.89217 7.96529 9.43563 7.96529 10.0023C7.96529 10.569 8.1904 11.1124 8.59109 11.5131C8.99178 11.9138 9.53524 12.1389 10.1019 12.1389V12.1389C10.3806 12.1458 10.6579 12.0976 10.9179 11.9973C11.178 11.897 11.4157 11.7463 11.6176 11.5541C11.8194 11.3618 11.9814 11.1317 12.0943 10.8768C12.2071 10.6219 12.2687 10.3473 12.2754 10.0686V10.0023ZM25.9423 18.6814C25.9423 15.1375 23.6878 13.7598 21.4481 13.7598C20.7147 13.7231 19.9846 13.8793 19.3304 14.2128C18.6763 14.5463 18.121 15.0456 17.7201 15.6607H17.6169V14.0545H14.1541V25.8427H17.8379V19.5729C17.7847 18.9307 17.987 18.2935 18.4008 17.7996C18.8147 17.3058 19.4067 16.9952 20.0482 16.9353H20.1882C21.3597 16.9353 22.2291 17.672 22.2291 19.5287V25.8427H25.9129L25.9423 18.6814Z" fill="#121111"/>
</svg>
