<svg width="34" height="34" viewBox="0 0 34 34" fill="none" xmlns="http://www.w3.org/2000/svg">
<path d="M28.3667 11.3217C28.3836 11.5671 28.3836 11.8124 28.3836 12.0601C28.3836 19.6055 22.6394 28.3078 12.1359 28.3078V28.3032C9.03315 28.3078 5.99484 27.419 3.38281 25.7432C3.83398 25.7975 4.28741 25.8246 4.74197 25.8258C7.31329 25.828 9.81111 24.9653 11.834 23.3766C9.39047 23.3302 7.24771 21.737 6.49915 19.4111C7.35513 19.5761 8.23711 19.5422 9.07725 19.3127C6.41321 18.7744 4.4966 16.4338 4.4966 13.7155C4.4966 13.6906 4.4966 13.6669 4.4966 13.6431C5.29038 14.0852 6.17915 14.3306 7.08827 14.3577C4.57914 12.6808 3.80571 9.34288 5.32091 6.73312C8.22015 10.3006 12.4978 12.4694 17.0897 12.6989C16.6295 10.7156 17.2582 8.6373 18.7417 7.24309C21.0417 5.0811 24.6589 5.19191 26.8209 7.49072C28.0998 7.23856 29.3255 6.7693 30.4472 6.10443C30.0209 7.42627 29.1288 8.5491 27.937 9.2626C29.0689 9.12917 30.1747 8.82613 31.2161 8.36366C30.4495 9.5125 29.4838 10.5132 28.3667 11.3217Z" fill="#121111"/>
</svg>
